<svg width="74" height="50" viewBox="0 0 74 50" fill="none" xmlns="http://www.w3.org/2000/svg">
<path d="M52 0H47.5V11H44L49.5 18.5L55 11H52V0Z" fill="#D9D9D9"/>
<path d="M17 31.5H21.5V20.5H25L19.5 13L14 20.5H17V31.5Z" fill="#D9D9D9"/>
<path d="M4 22.5H8.5V33.5H11.5L6 41L0.5 33.5H4V22.5Z" fill="#D9D9D9"/>
<path d="M29.8543 24.5H49.6457L55.6457 46.5H73.5V49.5H53.3543L47.3543 27.5H32.1457L26.1457 49.5H5.5V46.5H23.8543L29.8543 24.5Z" fill="#D9D9D9"/>
<path d="M69.5 42.5H65V31.5H62L67.5 24L73 31.5H69.5V42.5Z" fill="#D9D9D9"/>
</svg>
